#N canvas 63 87 1303 681 10;
#X obj 67 164 f 0;
#X obj 95 164 + 1;
#X obj 124 164 %;
#X obj 265 58 r cant_oct;
#X obj 170 146 *;
#X obj 170 113 pipe 0.1;
#X obj 67 197 tabread noteON;
#X obj 67 283 f 0;
#X obj 67 313 s step;
#X obj 95 283 +;
#X obj 124 283 %;
#X obj 67 228 t b f;
#N canvas 0 81 1366 687 sumaseq 0;
#X obj 68 27 inlet;
#X obj 68 171 f 0;
#X obj 102 171 +;
#X obj 136 171 %;
#X obj 507 25 r longseq;
#X obj 578 25 r cant_oct;
#X obj 507 97 *;
#X obj 151 149 *;
#X obj 676 90 r corrmodo;
#X obj 676 132 t b f;
#X obj 68 86 t b f;
#X obj 2 194 r setmodo;
#X obj 34 712 s ocstep;
#X msg 68 488 0;
#X msg 68 536 1;
#X msg 68 595 2;
#X msg 68 642 3;
#X obj 156 496 r longseq;
#X obj 156 553 * 2;
#X obj 156 602 * 3;
#X obj 414 712 s ocstep;
#X obj 536 495 r longseq;
#X obj 536 552 * 2;
#X obj 536 601 * 3;
#X obj 448 619 select;
#X obj 377 488 r cant_oct;
#X obj 377 539 - 1;
#X obj 377 641 - 1;
#X obj 377 594 - 1;
#X obj 448 489 f;
#X obj 448 539 f;
#X obj 448 594 f;
#X obj 448 642 f;
#X obj 187 188 spigot;
#X obj 189 211 == 3;
#X obj 435 290 s cont1;
#X obj 68 390 r cont1;
#X obj 448 570 select;
#X obj 448 513 select;
#X obj 458 466 select 0;
#X obj 68 290 s cont1;
#X obj 101 211 == 1;
#X obj 149 211 == 2;
#X obj 68 237 spigot;
#X obj 116 237 spigot;
#X obj 462 141 t f;
#X obj 448 424 -;
#X obj 764 712 s ocstep;
#X obj 886 496 r longseq;
#X obj 886 553 * 2;
#X obj 886 602 * 3;
#X obj 798 619 select;
#X obj 727 488 r cant_oct;
#X obj 727 539 - 1;
#X obj 727 641 - 1;
#X obj 727 594 - 1;
#X obj 798 489 f;
#X obj 798 539 f;
#X obj 798 594 f;
#X obj 798 642 f;
#X obj 798 570 select;
#X obj 798 513 select;
#X obj 798 466 select 0;
#X obj 116 290 s cont2;
#X obj 448 383 r cont3;
#X obj 492 290 s cont3;
#X obj 798 383 r cont2;
#X msg 526 222 2;
#X msg 489 222 1;
#X obj 581 239 s updownch;
#X obj 68 466 select 0;
#X obj 68 513 select;
#X obj 68 570 select;
#X obj 68 619 select;
#X obj 435 205 moses;
#X obj 578 79 t b;
#X obj 507 60 f;
#X obj 578 54 pipe 1;
#X obj 676 111 pipe 2;
#X obj 377 688 - 1;
#X obj 727 689 - 1;
#X obj 128 26 r metroState;
#X obj 128 86 select 1;
#X connect 0 0 10 0;
#X connect 1 0 2 0;
#X connect 1 0 33 0;
#X connect 1 0 43 0;
#X connect 1 0 44 0;
#X connect 2 0 3 0;
#X connect 3 0 1 1;
#X connect 4 0 76 0;
#X connect 5 0 6 1;
#X connect 5 0 77 0;
#X connect 6 0 7 0;
#X connect 6 0 45 0;
#X connect 7 0 3 1;
#X connect 8 0 78 0;
#X connect 9 0 7 0;
#X connect 9 1 7 1;
#X connect 10 0 1 0;
#X connect 10 1 2 1;
#X connect 11 0 34 0;
#X connect 11 0 41 0;
#X connect 11 0 42 0;
#X connect 13 0 12 0;
#X connect 14 0 12 0;
#X connect 15 0 12 0;
#X connect 16 0 12 0;
#X connect 17 0 18 0;
#X connect 17 0 19 0;
#X connect 17 0 71 1;
#X connect 18 0 72 1;
#X connect 19 0 73 1;
#X connect 21 0 22 0;
#X connect 21 0 23 0;
#X connect 21 0 38 1;
#X connect 22 0 37 1;
#X connect 23 0 24 1;
#X connect 24 0 32 0;
#X connect 25 0 26 0;
#X connect 26 0 28 0;
#X connect 26 0 29 1;
#X connect 27 0 31 1;
#X connect 27 0 79 0;
#X connect 28 0 27 0;
#X connect 28 0 30 1;
#X connect 29 0 20 0;
#X connect 30 0 20 0;
#X connect 31 0 20 0;
#X connect 32 0 20 0;
#X connect 33 0 74 0;
#X connect 34 0 33 1;
#X connect 36 0 70 0;
#X connect 36 0 71 0;
#X connect 36 0 72 0;
#X connect 36 0 73 0;
#X connect 37 0 31 0;
#X connect 38 0 30 0;
#X connect 39 0 29 0;
#X connect 41 0 43 1;
#X connect 42 0 44 1;
#X connect 43 0 40 0;
#X connect 44 0 63 0;
#X connect 45 0 46 1;
#X connect 45 0 74 1;
#X connect 46 0 39 0;
#X connect 46 0 38 0;
#X connect 46 0 37 0;
#X connect 46 0 24 0;
#X connect 48 0 49 0;
#X connect 48 0 50 0;
#X connect 48 0 61 1;
#X connect 49 0 60 1;
#X connect 50 0 51 1;
#X connect 51 0 59 0;
#X connect 52 0 53 0;
#X connect 53 0 55 0;
#X connect 53 0 56 1;
#X connect 54 0 58 1;
#X connect 54 0 80 0;
#X connect 55 0 54 0;
#X connect 55 0 57 1;
#X connect 56 0 47 0;
#X connect 57 0 47 0;
#X connect 58 0 47 0;
#X connect 59 0 47 0;
#X connect 60 0 58 0;
#X connect 61 0 57 0;
#X connect 62 0 56 0;
#X connect 64 0 46 0;
#X connect 66 0 62 0;
#X connect 66 0 61 0;
#X connect 66 0 60 0;
#X connect 66 0 51 0;
#X connect 67 0 69 0;
#X connect 68 0 69 0;
#X connect 70 0 13 0;
#X connect 71 0 14 0;
#X connect 72 0 15 0;
#X connect 73 0 16 0;
#X connect 74 0 35 0;
#X connect 74 0 68 0;
#X connect 74 1 67 0;
#X connect 74 1 65 0;
#X connect 75 0 76 0;
#X connect 76 0 6 0;
#X connect 77 0 75 0;
#X connect 78 0 9 0;
#X connect 79 0 32 1;
#X connect 80 0 59 1;
#X connect 81 0 82 0;
#X connect 82 1 1 1;
#X restore 94 354 pd sumaseq;
#N canvas 114 179 927 521 seq2note 0;
#X obj 74 115 *;
#X obj 15 29 inlet;
#X obj 484 115 *;
#X obj 425 29 inlet;
#X obj 74 255 *;
#X obj 15 169 inlet;
#X obj 484 255 *;
#X obj 425 169 inlet;
#X obj 484 55 select 4;
#X obj 74 193 select 1;
#X obj 74 55 select 2;
#X msg 484 230 1;
#X obj 484 195 select 3;
#X msg 74 227 1;
#X msg 74 81 1;
#X msg 484 80 1;
#X obj 74 142 s arpnote;
#X obj 484 142 s arpnote;
#X obj 74 282 s arpnote;
#X obj 484 282 s arpnote;
#X obj 136 322 bng 15 250 50 0 empty empty empty 17 7 0 10 -262144
-1 -1;
#X obj 124 116 bng 15 250 50 0 empty empty empty 17 7 0 10 -262144
-1 -1;
#X obj 572 135 bng 15 250 50 0 empty empty empty 17 7 0 10 -262144
-1 -1;
#X obj 568 315 bng 15 250 50 0 empty empty empty 17 7 0 10 -262144
-1 -1;
#X obj 279 -68 r updownch;
#X obj 196 -68 r setmodo;
#X obj 279 -46 t b f;
#X obj 279 -22 f \$0;
#X obj 196 -22 select 1 2 3;
#X obj 196 15 t b;
#X obj 243 15 t b;
#X msg 196 54 2;
#X msg 244 54 4;
#X msg 196 194 1;
#X msg 243 194 3;
#X obj 450 -68 r seq;
#X obj 450 -46 pipe 0.1;
#X obj 450 -24 s seqdel;
#X obj 74 29 r seqdel;
#X obj 484 28 r seqdel;
#X obj 484 169 r seqdel;
#X obj 74 169 r seqdel;
#X obj 653 -64 r longseq;
#X obj 653 -42 select 3 4;
#X obj 243 239 r s1;
#X obj 160 84 r s2;
#X obj 196 239 r s3;
#X msg 696 22 \; s1 \$1 \; s2 \$2 \; s3 \$3 \; s4 \$4;
#X obj 279 84 r s4;
#X msg 640 -1 1 2 3 0;
#X msg 640 22 \; s1 \$1 \; s2 \$2 \; s3 \$3 \; s4 \$4;
#X msg 696 -1 2 3 4 1;
#X obj 243 84 int;
#X obj 196 84 int;
#X obj 196 217 int;
#X obj 243 217 int;
#X floatatom 196 262 5 0 0 0 - - -, f 5;
#X floatatom 243 262 5 0 0 0 - - -, f 5;
#X connect 0 0 16 0;
#X connect 0 0 21 0;
#X connect 1 0 0 1;
#X connect 2 0 17 0;
#X connect 2 0 22 0;
#X connect 3 0 2 1;
#X connect 4 0 18 0;
#X connect 4 0 20 0;
#X connect 5 0 4 1;
#X connect 6 0 19 0;
#X connect 6 0 23 0;
#X connect 7 0 6 1;
#X connect 8 0 15 0;
#X connect 9 0 13 0;
#X connect 10 0 14 0;
#X connect 11 0 6 0;
#X connect 12 0 11 0;
#X connect 13 0 4 0;
#X connect 14 0 0 0;
#X connect 15 0 2 0;
#X connect 24 0 26 0;
#X connect 25 0 28 0;
#X connect 26 0 27 0;
#X connect 26 1 27 1;
#X connect 27 0 28 0;
#X connect 28 0 29 0;
#X connect 28 1 30 0;
#X connect 28 2 27 0;
#X connect 29 0 31 0;
#X connect 29 0 32 0;
#X connect 29 0 33 0;
#X connect 29 0 34 0;
#X connect 30 0 52 0;
#X connect 30 0 53 0;
#X connect 30 0 55 0;
#X connect 30 0 54 0;
#X connect 31 0 10 1;
#X connect 32 0 8 1;
#X connect 33 0 9 1;
#X connect 34 0 12 1;
#X connect 35 0 36 0;
#X connect 36 0 37 0;
#X connect 38 0 10 0;
#X connect 39 0 8 0;
#X connect 40 0 12 0;
#X connect 41 0 9 0;
#X connect 42 0 43 0;
#X connect 43 0 49 0;
#X connect 43 1 51 0;
#X connect 44 0 55 1;
#X connect 44 0 57 0;
#X connect 45 0 53 1;
#X connect 46 0 54 1;
#X connect 46 0 56 0;
#X connect 48 0 52 1;
#X connect 49 0 50 0;
#X connect 51 0 47 0;
#X connect 52 0 8 1;
#X connect 53 0 10 1;
#X connect 54 0 9 1;
#X connect 55 0 12 1;
#X restore 484 435 pd seq2note;
#N canvas 63 81 1215 686 step2seq 0;
#X obj 74 75 *;
#X obj 89 -22 r step;
#X obj 15 -41 inlet;
#X obj 324 75 *;
#X obj 265 -41 inlet;
#X obj 74 335 *;
#X obj 15 219 inlet;
#X obj 324 335 *;
#X obj 265 219 inlet;
#X obj 89 0 select 1;
#X msg 89 22 1;
#X obj 89 43 t b f;
#X obj 339 -22 r step;
#X msg 339 22 1;
#X obj 339 43 t b f;
#X obj 339 0 select 3;
#X obj 89 238 r step;
#X msg 89 282 1;
#X obj 89 303 t b f;
#X obj 339 238 r step;
#X msg 339 282 1;
#X obj 339 303 t b f;
#X obj 89 260 select 0;
#X obj 339 260 select 2;
#X obj 74 112 s seq;
#X obj 324 112 s seq;
#X obj 74 372 s seq;
#X obj 324 373 s seq;
#X obj 19 76 f;
#X obj 268 76 f;
#X obj 19 336 f;
#X obj 269 336 f;
#X connect 0 0 24 0;
#X connect 1 0 9 0;
#X connect 2 0 28 1;
#X connect 3 0 25 0;
#X connect 4 0 29 1;
#X connect 5 0 26 0;
#X connect 6 0 30 1;
#X connect 7 0 27 0;
#X connect 8 0 31 1;
#X connect 9 0 10 0;
#X connect 10 0 11 0;
#X connect 11 0 28 0;
#X connect 11 1 0 1;
#X connect 12 0 15 0;
#X connect 13 0 14 0;
#X connect 14 0 29 0;
#X connect 14 1 3 1;
#X connect 15 0 13 0;
#X connect 16 0 22 0;
#X connect 17 0 18 0;
#X connect 18 0 30 0;
#X connect 18 1 5 1;
#X connect 19 0 23 0;
#X connect 20 0 21 0;
#X connect 21 0 31 0;
#X connect 21 1 7 1;
#X connect 22 0 17 0;
#X connect 23 0 20 0;
#X connect 28 0 0 0;
#X connect 29 0 3 0;
#X connect 30 0 5 0;
#X connect 31 0 7 0;
#X restore 630 435 pd step2seq;
#X obj 626 393 unpack f f f f;
#X obj 481 393 unpack f f f f;
#N canvas 290 307 854 351 modo 0;
#X obj 204 37 inlet;
#X obj -13 85 select 0;
#X obj 204 85 select 1;
#X obj 414 84 select 2;
#X obj 204 249 s setmodo;
#X msg 204 108 1;
#X msg -13 198 1;
#X msg 414 108 2;
#X obj 27 151 s corrmodo;
#X msg -13 108 1;
#X obj 257 151 s corrmodo;
#X obj 457 151 s corrmodo;
#X msg 204 198 2;
#X msg 414 198 3;
#X connect 0 0 2 0;
#X connect 0 0 1 0;
#X connect 0 0 3 0;
#X connect 1 0 9 0;
#X connect 1 0 6 0;
#X connect 2 0 5 0;
#X connect 2 0 12 0;
#X connect 3 0 7 0;
#X connect 3 0 13 0;
#X connect 5 0 10 0;
#X connect 6 0 4 0;
#X connect 7 0 11 0;
#X connect 9 0 8 0;
#X connect 12 0 4 0;
#X connect 13 0 4 0;
#X restore 751 366 pd modo;
#X obj 3 228 select 1;
#X obj 170 30 r longseq;
#X obj 159 244 r longseq;
#X obj 686 30 r arpmode;
#X msg 686 133 arpmode 2;
#X msg 686 101 set arpmode \$1;
#X obj 658 133 t b;
#X obj 481 30 r longseq;
#X obj 481 92 select 3 4;
#X msg 481 153 set sequence 1 2 3;
#X msg 509 117 set sequence 1 2 3 4;
#X obj 481 248 r arpnotes;
#X msg 481 187 sequence 1 2 3 4;
#X msg 481 270 set arpnotes \$1 \$2 \$3 \$4;
#X msg 528 306 arpnotes 0 5 7 10;
#X obj 481 348 route arpnotes sequence arpmode;
#X obj 453 171 t b;
#X obj 455 288 t b;
#X obj 852 32 table noteON;
#X obj 236 128 t b;
#X obj 265 128 pipe 1;
#X obj 346 146 select 1;
#X obj 391 265 f;
#X obj 67 86 r semi;
#X obj 45 29 r indice_fusas;
#X obj 346 30 r onOff;
#X connect 0 0 1 0;
#X connect 0 0 6 0;
#X connect 1 0 2 0;
#X connect 2 0 0 1;
#X connect 3 0 4 1;
#X connect 3 0 38 0;
#X connect 4 0 2 1;
#X connect 5 0 4 0;
#X connect 6 0 11 0;
#X connect 6 0 18 0;
#X connect 7 0 8 0;
#X connect 7 0 9 0;
#X connect 9 0 10 0;
#X connect 10 0 7 1;
#X connect 11 1 9 1;
#X connect 11 1 12 0;
#X connect 15 0 14 0;
#X connect 15 1 14 1;
#X connect 15 2 14 2;
#X connect 15 3 14 3;
#X connect 16 0 13 0;
#X connect 16 1 13 1;
#X connect 16 2 13 2;
#X connect 16 3 13 3;
#X connect 18 0 7 0;
#X connect 19 0 5 0;
#X connect 20 0 10 1;
#X connect 21 0 23 0;
#X connect 22 0 33 0;
#X connect 23 0 22 0;
#X connect 23 0 24 0;
#X connect 24 0 22 0;
#X connect 25 0 26 0;
#X connect 26 0 27 0;
#X connect 26 1 28 0;
#X connect 27 0 30 0;
#X connect 27 0 34 0;
#X connect 28 0 30 0;
#X connect 28 0 34 0;
#X connect 29 0 31 0;
#X connect 30 0 33 0;
#X connect 31 0 32 0;
#X connect 31 0 35 0;
#X connect 32 0 33 0;
#X connect 33 0 16 0;
#X connect 33 1 15 0;
#X connect 33 2 17 0;
#X connect 34 0 30 0;
#X connect 35 0 32 0;
#X connect 37 0 4 0;
#X connect 38 0 37 0;
#X connect 39 1 0 1;
#X connect 39 1 40 0;
#X connect 40 0 7 1;
#X connect 42 0 0 0;
#X connect 43 0 39 0;
