#N canvas 471 195 450 300 10;
#X obj 45 22 tgl 30 0 empty empty empty 17 7 0 10 -261682 -1 -1 0 1
;
#N canvas 63 87 1303 681 arp_Controller 0;
#X obj 75 22 loadbang;
#X msg 52 190 1;
#X msg 92 190 2;
#X msg 134 190 3;
#X obj 105 280 s cant_oct;
#X obj 280 280 s arpmode;
#X obj 280 204 vradio 22 1 0 3 empty empty empty 0 -8 0 11 -262144
-1 -1 2;
#X text 308 203 ascendente;
#X text 307 227 descendente;
#X text 308 250 asc-desc;
#X obj 421 280 s arpnotes;
#X obj 75 142 t b b b b, f 87;
#X obj 680 280 s longseq;
#X msg 665 192 3;
#X msg 700 192 4;
#X text 63 321 cantidad de octavas para la secuencia;
#X text 282 305 modos;
#X text 386 337 notas del arpegiador \, previo a la entrada del subtractive
se les suma 60 para que suenen en el rango midi a partir de ese valor
;
#X text 674 314 longitud de la secuencia \, tres o cuatro notas;
#X msg 277 175 0;
#X msg 310 175 1;
#X msg 347 175 2;
#X msg 421 176 0 5 7 10;
#X msg 172 190 4;
#X obj 769 210 t b;
#X msg 769 233 0;
#X obj 820 209 pipe 1;
#X msg 820 232 1;
#X text 650 144 al cambiar de longitud de secuencia se reinician los
iteradores para que el pasaje sea correcto;
#X obj 769 276 s metroStateeeeeeee;
#X msg 987 91 \; noteON 0 1 1 1 1 1 1 1 1 1 1 1 1 1 1 1 1 1 1 1 1 1
1 1 1 1 1 1 1 1 1 1 1;
#X msg 986 40 \; noteON 0 1 0 0 0 1 1 1 1 1 1 1 1 1 1 1 1 1 1 1 1 1
1 1 1 1 0 1 0 1 1 1 0;
#X msg 992 269 \; noteON 0 1 -1 0 0 1 0 0 0 1 0 0 0 1 0 0 0 1 0 0 0
1 0 0 0 1 0 0 0 1 0 0 0;
#X msg 991 383 \; noteON 0 1 0 0 0 1 1 1 1 1 0 1 0 1 0 1 0 1 0 1 0
1 0 1 0 1 0 0 0 1 0 0 0;
#X text 1354 281 negras;
#X msg 991 325 \; noteON 0 1 0 1 0 1 0 1 0 1 0 1 0 1 0 1 0 1 0 1 0
1 0 1 0 1 0 1 0 1 0 1 0;
#X text 1364 340 corcheas;
#X text 1369 104 fusas 60 - 110 BPM;
#X msg 987 146 \; noteON 0 1 0 1 0 1 0 1 0 1 0 1 0 1 0 1 0 1 0 1 0
1 0 1 0 1 0 1 0 1 0 1 0;
#X msg 987 202 \; noteON 0 1 0 1 0 1 0 1 0 1 0 1 0 1 0 1 0 1 0 1 0
1 0 1 0 1 0 1 0 1 1 1 1;
#X msg 992 451 \; noteON 0 1 0 0 0 1 0 1 0 1 0 0 0 1 0 1 0 1 0 0 0
1 0 1 0 1 0 0 0 1 0 1 0;
#X connect 0 0 31 0;
#X connect 0 0 11 0;
#X connect 1 0 4 0;
#X connect 2 0 4 0;
#X connect 3 0 4 0;
#X connect 6 0 5 0;
#X connect 11 0 23 0;
#X connect 11 1 21 0;
#X connect 11 2 22 0;
#X connect 11 3 14 0;
#X connect 13 0 12 0;
#X connect 13 0 24 0;
#X connect 14 0 12 0;
#X connect 14 0 24 0;
#X connect 19 0 6 0;
#X connect 20 0 6 0;
#X connect 21 0 6 0;
#X connect 22 0 10 0;
#X connect 23 0 4 0;
#X connect 24 0 25 0;
#X connect 25 0 26 0;
#X connect 25 0 29 0;
#X connect 26 0 27 0;
#X connect 27 0 29 0;
#X restore 45 185 pd arp_Controller;
#N canvas 63 149 250 210 tempo 0;
#X obj 92 32 inlet;
#X obj 116 144 s metroValue;
#X msg 92 75 60;
#X obj 115 104 / 1;
#X obj 92 54 t b f;
#X obj 115 126 * 250;
#X floatatom 88 163 5 0 0 0 - - -, f 5;
#X connect 0 0 4 0;
#X connect 2 0 3 0;
#X connect 3 0 5 0;
#X connect 4 0 2 0;
#X connect 4 1 3 1;
#X connect 5 0 1 0;
#X connect 5 0 6 0;
#X restore 45 114 pd tempo;
#X obj 287 31 hsl 150 20 60 240 0 0 empty empty Tempo -2 -8 1 10 -204786
-1 -1 0 1;
#X obj 284 56 s beat;
#X obj 45 93 r beat;
#X obj 45 206 arpeggiator;
#N canvas 63 89 450 300 metroCalc 0;
#N canvas 601 175 450 300 reset_t 0;
#X obj 67 45 inlet;
#X obj 67 67 select 1;
#X msg 67 89 0;
#X obj 67 111 s reset_t;
#X connect 0 0 1 0;
#X connect 1 0 2 0;
#X connect 2 0 3 0;
#X restore 184 39 pd reset_t;
#X obj 170 74 pipe 2;
#X obj 170 97 metro 125;
#X obj 221 75 r metroValue;
#N canvas 640 381 477 387 indiceSemis 0;
#X obj 44 23 inlet;
#X obj 44 152 \$1;
#X msg 62 115 0;
#X obj 62 93 r reset_t;
#X obj 84 151 + 1;
#X obj 167 24 inlet;
#X msg 167 94 3;
#N canvas 63 119 400 392 metricCalculator 0;
#X obj 106 158 *;
#X obj 106 112 pipe 1;
#X obj 106 266 *;
#X obj 121 242 r tiempos;
#X obj 121 137 r subdivision;
#X obj 106 66 r subdivisionSemis;
#X obj 106 91 \$1;
#X msg 257 123 bang;
#X obj 106 304 outlet;
#X obj 244 257 outlet;
#X connect 0 0 2 0;
#X connect 0 0 9 0;
#X connect 1 0 0 0;
#X connect 2 0 8 0;
#X connect 3 0 2 1;
#X connect 3 0 7 0;
#X connect 4 0 0 1;
#X connect 4 0 7 0;
#X connect 5 0 6 0;
#X connect 6 0 1 0;
#X connect 7 0 6 0;
#X restore 77 200 pd metricCalculator;
#X obj 86 229 s semisPorCompas;
#X obj 44 262 mod 16;
#X obj 44 284 outlet;
#X obj 204 229 s semisPorBeat;
#X connect 0 0 1 0;
#X connect 1 0 4 0;
#X connect 1 0 9 0;
#X connect 2 0 1 1;
#X connect 3 0 2 0;
#X connect 4 0 1 1;
#X connect 5 0 6 0;
#X connect 6 0 1 1;
#X connect 7 0 8 0;
#X connect 7 0 9 1;
#X connect 7 1 11 0;
#X connect 9 0 10 0;
#X restore 170 159 pd indiceSemis;
#X obj 251 139 r segundaCorchea;
#X obj 52 206 s indice_semis;
#X obj 170 15 r metroState;
#N canvas 63 119 295 278 indice_fusas 0;
#X obj 147 50 r metroValue;
#X obj 102 94 pipe 125;
#X obj 147 72 * 0.5;
#X obj 102 155 + 1;
#X msg 102 116 1;
#X obj 71 94 * 2;
#X obj 71 50 inlet;
#X obj 71 186 outlet;
#X connect 0 0 2 0;
#X connect 1 0 4 0;
#X connect 2 0 1 1;
#X connect 3 0 7 0;
#X connect 4 0 3 0;
#X connect 5 0 3 1;
#X connect 5 0 7 0;
#X connect 6 0 1 0;
#X connect 6 0 5 0;
#X restore 187 191 pd indice_fusas;
#X obj 187 213 s indice_fusas;
#X connect 1 0 2 0;
#X connect 2 0 4 0;
#X connect 3 0 2 1;
#X connect 4 0 6 0;
#X connect 4 0 8 0;
#X connect 5 0 4 1;
#X connect 7 0 0 0;
#X connect 7 0 1 0;
#X connect 8 0 9 0;
#X restore 45 135 pd metroCalc;
#X obj 45 57 s onOff;
#X connect 0 0 8 0;
#X connect 3 0 4 0;
#X connect 5 0 2 0;
